<svg width="24" height="24" viewBox="0 0 24 24" fill="none" xmlns="http://www.w3.org/2000/svg">
<g clip-path="url(#clip0_103_2)">
<path fill-rule="evenodd" clip-rule="evenodd" d="M15.7371 10.9582C16.018 11.2394 16.1758 11.6207 16.1758 12.0182C16.1758 12.4157 16.018 12.7969 15.7371 13.0782L10.0811 18.7362C9.79971 19.0174 9.41811 19.1754 9.02025 19.1753C8.82325 19.1752 8.62819 19.1364 8.4462 19.061C8.26421 18.9855 8.09887 18.875 7.9596 18.7357C7.82033 18.5963 7.70987 18.4309 7.63453 18.2489C7.55918 18.0669 7.52043 17.8718 7.52047 17.6748C7.52052 17.4778 7.55937 17.2828 7.6348 17.1008C7.71023 16.9188 7.82077 16.7534 7.9601 16.6142L12.5551 12.0182L7.9591 7.42216C7.81577 7.28386 7.70142 7.1184 7.62272 6.93543C7.54403 6.75246 7.50256 6.55565 7.50073 6.35648C7.49891 6.15732 7.53677 5.95978 7.6121 5.7754C7.68744 5.59102 7.79874 5.42349 7.93951 5.28259C8.08028 5.14168 8.2477 5.03023 8.43201 4.95472C8.61632 4.87921 8.81382 4.84116 9.01299 4.8428C9.21216 4.84444 9.40901 4.88572 9.59205 4.96425C9.77509 5.04277 9.94066 5.15697 10.0791 5.30016L15.7391 10.9582L15.7371 10.9582Z" fill="#A8A8A8"/>
</g>
<defs>
<clipPath id="clip0_103_2">
<rect width="24" height="24" fill="white"/>
</clipPath>
</defs>
</svg>
